<svg xmlns="http://www.w3.org/2000/svg" viewBox="0 0 1440 60" preserveAspectRatio="none" aria-hidden="true">
  <defs>
    <linearGradient id="bet" x1="0" y1="1" x2="0" y2="0">
      <stop offset="0%"   stop-color="#0D0A08" stop-opacity="0"/>
      <stop offset="60%"  stop-color="#0D0A08" stop-opacity="0.7"/>
      <stop offset="100%" stop-color="#0D0A08" stop-opacity="1"/>
    </linearGradient>
    <linearGradient id="bet2" x1="0" y1="1" x2="0" y2="0">
      <stop offset="0%"   stop-color="#1A1210" stop-opacity="0"/>
      <stop offset="100%" stop-color="#1A1210" stop-opacity="0.9"/>
    </linearGradient>
  </defs>
  <!-- Flipped burnt edge — dark from top -->
  <polygon
    points="0,0
            0,32
            48,18  72,38  108,22  144,44  182,26  220,50  258,28  294,42
            332,20 368,46  406,30  444,52  480,32  516,16  552,40  588,24
            624,48 660,22  696,38  732,14  768,42  804,26  840,50  876,30
            912,12 948,36  984,20  1020,46 1056,24 1092,40 1128,16 1164,34
            1200,18 1236,44 1272,22 1308,38 1344,14 1380,32 1416,18 1440,30
            1440,0"
    fill="url(#bet)"/>
  <polygon
    points="0,0
            0,22
            60,10  100,26  140,12  180,32  220,16  260,28  300,10  340,24
            380,8  420,20  460,4   500,22  540,6   580,18  620,4   660,16
            700,2  740,14  780,0   820,12  860,4   900,16  940,2   980,10
            1020,0 1060,8  1100,0  1140,6  1180,0  1220,4  1260,0  1300,8
            1340,0 1380,4  1420,0  1440,0"
    fill="url(#bet2)" opacity="0.6"/>
</svg>
