<svg xmlns="http://www.w3.org/2000/svg" viewBox="0 0 1440 60" preserveAspectRatio="none" aria-hidden="true">
  <defs>
    <linearGradient id="be" x1="0" y1="0" x2="0" y2="1">
      <stop offset="0%"   stop-color="#0D0A08" stop-opacity="0"/>
      <stop offset="60%"  stop-color="#0D0A08" stop-opacity="0.7"/>
      <stop offset="100%" stop-color="#0D0A08" stop-opacity="1"/>
    </linearGradient>
    <linearGradient id="be2" x1="0" y1="0" x2="0" y2="1">
      <stop offset="0%"   stop-color="#1A1210" stop-opacity="0"/>
      <stop offset="100%" stop-color="#1A1210" stop-opacity="0.9"/>
    </linearGradient>
  </defs>
  <!-- Irregular jagged base — simulates charred leather edge -->
  <polygon
    points="0,60
            0,28
            48,42  72,22  108,38  144,16  182,34  220,10  258,32  294,18
            332,40 368,14  406,30  444,8   480,28  516,44  552,20  588,36
            624,12 660,38  696,22  732,46  768,18  804,34  840,10  876,30
            912,48 948,24  984,40  1020,14 1056,36 1092,20 1128,44 1164,26
            1200,42 1236,16 1272,38 1308,22 1344,46 1380,28 1416,42 1440,30
            1440,60"
    fill="url(#be)"/>
  <!-- Second layer for depth — slightly different jagged line -->
  <polygon
    points="0,60
            0,38
            60,50  100,34  140,48  180,28  220,44  260,32  300,50  340,36
            380,52 420,40  460,56  500,38  540,54  580,42  620,56  660,44
            700,58 740,46  780,60  820,48  860,56  900,44  940,58  980,50
            1020,60 1060,52 1100,60 1140,54 1180,60 1220,56 1260,60 1300,52
            1340,60 1380,56 1420,60 1440,60"
    fill="url(#be2)" opacity="0.6"/>
</svg>
