<svg xmlns="http://www.w3.org/2000/svg" viewBox="0 0 1440 40" preserveAspectRatio="none" aria-hidden="true">
  <!-- Torn parchment edge — organic, rough, asymmetric -->
  <path
    d="M0,40
       L0,18
       C18,22 28,14 42,20
       C56,26 64,10 80,16
       C94,21 102,8  118,14
       C134,20 140,6  158,12
       C174,18 182,4  200,10
       C216,16 224,2  242,8
       C260,14 268,0  288,6
       C306,12 316,24 334,18
       C350,12 360,26 378,20
       C396,14 404,28 422,22
       C440,16 448,30 466,24
       C484,18 492,4  510,10
       C528,16 536,2  556,8
       C574,14 582,28 600,22
       C618,16 626,30 644,24
       C660,18 670,6  688,12
       C704,18 712,4  730,10
       C748,16 756,28 774,22
       C790,16 800,30 818,24
       C836,18 844,4  862,10
       C880,16 888,2  908,8
       C926,14 934,26 952,20
       C970,14 978,28 996,22
       C1014,16 1022,2  1040,8
       C1058,14 1066,28 1084,22
       C1100,16 1110,30 1128,24
       C1146,18 1154,4  1172,10
       C1190,16 1198,2  1216,8
       C1234,14 1242,26 1260,20
       C1278,14 1288,28 1306,22
       C1322,16 1332,30 1350,24
       C1368,18 1376,6  1394,12
       C1410,18 1420,8  1440,14
       L1440,40 Z"
    fill="#2A1F1A"/>
  <!-- Subtle shadow line at tear -->
  <path
    d="M0,18
       C18,22 28,14 42,20
       C56,26 64,10 80,16
       C94,21 102,8  118,14
       C134,20 140,6  158,12
       C174,18 182,4  200,10
       C216,16 224,2  242,8
       C260,14 268,0  288,6
       C306,12 316,24 334,18
       C350,12 360,26 378,20
       C396,14 404,28 422,22
       C440,16 448,30 466,24
       C484,18 492,4  510,10
       C528,16 536,2  556,8
       C574,14 582,28 600,22
       C618,16 626,30 644,24
       C660,18 670,6  688,12
       C704,18 712,4  730,10
       C748,16 756,28 774,22
       C790,16 800,30 818,24
       C836,18 844,4  862,10
       C880,16 888,2  908,8
       C926,14 934,26 952,20
       C970,14 978,28 996,22
       C1014,16 1022,2  1040,8
       C1058,14 1066,28 1084,22
       C1100,16 1110,30 1128,24
       C1146,18 1154,4  1172,10
       C1190,16 1198,2  1216,8
       C1234,14 1242,26 1260,20
       C1278,14 1288,28 1306,22
       C1322,16 1332,30 1350,24
       C1368,18 1376,6  1394,12
       C1410,18 1420,8  1440,14"
    fill="none" stroke="#0D0A08" stroke-width="2" opacity="0.5"/>
</svg>
